<?xml version="1.0" encoding="UTF-8"?>
<svg id="Layer_1" data-name="Layer 1" xmlns="http://www.w3.org/2000/svg" viewBox="0 0 798.42 270">
  <defs>
    <style>
      .cls-1 {
        fill: #fff;
        fill-rule: evenodd;
      }

      .cls-1, .cls-2 {
        stroke-width: 0px;
      }

      .cls-2 {
        fill: #eaeaea;
      }
    </style>
  </defs>
  <path class="cls-1" d="M595.34.21v6.07c-.87-.73-1.82-1.4-2.77-2.02-3.13-1.97-6.55-3.12-9.76-3.65-.36-.07-.8-.13-1.24-.19-.44-.05-.87-.1-1.53-.14-.58-.04-1.38-.06-3.35-.11-1.97-.04-5.17-.1-9.1-.14-3.93-.04-8.59-.06-17.18-.03-8.52.03-20.97.22-33.35.22l-186.77.05v2.4c-2.69-1.26-5.32-1.85-7.94-2.18-.44-.06-.87-.1-1.46-.14-.65-.04-1.38-.06-3.13-.1-1.67-.04-4.37-.08-7.65-.12-3.28-.03-7.21-.05-14.42-.03-7.21.02-17.69.18-28.18.18h-51.04c-1.24.02-2.48.06-3.57.13-2.18.16-3.79.38-5.53.77-.87.2-1.82.46-2.69.74-1.89.62-3.13,1.17-4.66,2.06-.8.48-1.75,1.08-2.55,1.68-2.55,2.06-4.08,4.03-5.39,6.13-.73-.98-1.53-1.96-2.4-2.93-1.24-1.31-2.62-2.5-4.08-3.53-1.38-1.03-2.84-1.89-4.44-2.61-1.6-.73-3.28-1.32-5.24-1.73-1.97-.42-4.3-.68-6.55-.68l-63.86.02c-2.18-.02-4.22.29-6.55.96-.8-.23-1.6-.43-2.33-.58-1.46-.28-2.62-.38-3.79-.38l-63.93.02c-2.91,0-5.9.29-8.08.67-2.26.39-3.79.91-5.24,1.49-2.04.87-3.79,1.77-5.61,3.19-.95.75-2.48,2.16-3.49,3.45-.95,1.15-1.75,2.26-2.33,3.37-.36.59-.65,1.23-.95,1.95-.36.72-.66,1.52-.87,2.12-.44,1.18-.58,1.74-.8,2.57-.15.4-.22.82-.36,1.5-.29,1.44-.65,3.72-.8,5.75-.07,1.07-.07,2.14-.07,3.21-.07.86-.07,1.72-.07,2.82v13.19l-.22,105.28h44.2c.07-26.07.07-52.13.14-69.65v-35.47h32.77v4.1c0,.35,0,.76-.07,1.81,0,1.05,0,2.74-.07,3.88v3.57l-.22,91.73h44.2c.07-25.73.15-51.45.15-68.97v-36.15h32.77v4.07c0,.35,0,.78-.07,1.83,0,1.06,0,2.74-.07,3.88v3.57l-.15,91.73,78.2-.02.07-52.57,70.92-.02-.07,52.57h44.13s.22-105.11.22-105.11h27.96s-.22,105.09-.22,105.09h44.2s.22-105.11.22-105.11h27.74s-.22,105.09-.22,105.09h44.13s.15-52.58.15-52.58l54.17-.02,15.87,52.57,105.29-.03,39.18-44.57,38.88,44.55,53.74-.02-65.68-75.2L798.42.15l-53.74.02-39.1,44.55L666.63.19l-71.29.02h0ZM678.64,75.43l-39.32,44.85.15-89.64,39.17,44.79h0ZM595.12,109.52l-5.17-14.24c1.82-.96,3.49-2.1,5.24-3.54l-.07,17.78h0ZM302.91,45.74c0,2.38,0,4.84-.07,7.08l-70.92.02v-7.08l71-.02h0ZM491.07,52.77v-7.08l70.92-.02v7.07l-70.92.03h0ZM99.54,11.58c1.46-1.11,2.84-1.45,4.59-1.62,5.68-.03,11.29-.05,22.21-.06,10.85,0,26.94,0,35.1,0,8.16,0,8.38,0,8.59,0,1.75.04,3.42.27,5.24.8,1.75.53,3.2,1.21,4.88,2.37.95.67,1.75,1.34,2.48,2.12,1.6,1.59,3.28,4.11,4.22,6,1.16,2.53,1.67,4.9,1.75,7.5,0,.1.07.21.07.36v4.03c0,1.81-.07,4.6-.07,6.84v11.84c0,7.9,0,21.99-.07,37.95,0,15.96-.07,33.78-.07,51.61h-25.56c0-14.6,0-29.2.07-42.89,0-13.69,0-26.47.07-34.52,0-8.05.07-11.36.07-13.67.07-2.3.07-3.6,0-4.68-.07-2.02.15-3.33-.44-5.17-.36-1.03-.87-1.93-2.11-2.93-.65-.49-1.24-.77-1.97-.98-.44-.12-.95-.2-1.46-.24-3.49,0-6.99,0-13.47-.02-6.48,0-15.95-.02-20.97,0-5.02.02-5.68.07-6.19.17-1.38.29-2.33.61-3.42,1.97-.22.22-.36.46-.51.73-.36.63-.58,1.65-.65,2.7-.07.91-.07,1.82-.07,2.92-.07,1.11-.07,2.42-.07,4.86s.07,6.03.07,12.86-.07,16.9-.07,30.59c-.07,13.69-.07,31-.07,48.32h-25.63c.07-19.81.07-39.63.15-53.32,0-13.69,0-21.25.07-26.69,0-5.44.07-8.75.07-11.06.07-2.31,0-3.6,0-4.68-.07-2.1.15-3.31-.51-5.29-.29-.96-.66-1.54-1.53-2.41-1.16-1.01-2.26-1.43-3.57-1.59-2.04-.02-4.15-.03-6.7-.04-2.62,0-5.68-.02-11.21-.02-5.46,0-13.4-.02-17.69,0-4.3.02-4.95.08-5.46.17-.51.09-.95.22-1.31.37-.8.35-1.46.75-2.11,1.59-.15.22-.29.46-.44.73-.36.63-.58,1.65-.65,2.7-.07.92-.07,1.83-.07,2.96-.07,1.13-.07,2.47-.07,4.92s.07,5.99,0,17.55c0,11.57,0,31.15-.07,44.85,0,13.69,0,21.49-.07,29.28H9.32c.07-10.74.07-21.49.07-34.79.07-13.3.07-29.15.07-39.08.07-9.93.07-13.94.07-18.34v-19.55c.07-1.88.22-3.79.36-5.3.22-1.51.51-2.6.87-3.61.29-1.01.66-1.93,1.09-2.81.29-.58.66-1.15.95-1.59.29-.44.51-.74.8-1.04.73-.89,1.67-1.69,2.4-2.26.65-.45,1.24-.77,1.89-1.12.65-.32,1.38-.6,2.26-.86.8-.26,1.82-.51,3.06-.7,1.24-.19,2.77-.33,4.37-.38,5.75-.01,11.43-.02,22.35-.04,10.85-.02,26.87-.04,35.24-.02,8.38.03,9.1.1,9.83.26,1.38.28,2.77.85,4.08,1.75.15-.12.29-.25.44-.32h0ZM222.45,141.31h-25.56c0-18.77.07-37.54.07-50.84.07-13.3.07-21.12.07-27.05v-26.83c0-3.31.07-5.15.07-7,0-2.21.22-4.43.51-6.13.29-1.69.65-2.86,1.09-3.93.8-1.93,1.38-3.29,3.13-5.09.29-.34.66-.63,1.02-.93.73-.56,1.38-1.05,1.97-1.33,1.82-.96,2.99-1.28,4.52-1.64.73-.16,1.53-.31,2.48-.42,1.02-.11,2.11-.2,3.28-.23.07,0,.22,0,.36,0,.15,0,.29,0,1.89,0,1.53,0,4.44,0,7.06,0,2.55,0,4.81,0,11.94,0,7.14,0,19.15.01,30.58-.03,11.36-.04,22.14-.13,29.56-.17,7.43-.03,11.5,0,14.93.04,3.35.04,6.12.1,8.88.19,2.26.14,5.17.86,7.43,2.1.51.28,1.02.61,1.53.97,1.46,1.02,2.69,2.22,3.64,3.37,1.17,1.45,2.4,3.3,3.06,4.77,1.17,2.53,1.68,4.94,1.82,7.53v7.28c0,2.24,0,5.92-.07,19.46,0,13.55-.07,36.96-.07,52.92-.07,15.96-.07,24.47-.07,32.97h-25.56v-18.15c.07-8.76.07-21.59.07-34.42l-89.56.03v28.77c-.07,8.76-.07,16.28-.07,23.8h0ZM312.16,62.38c0-3.78.07-7.56.07-10.42v-6.33c0-1.54-.07-2.67-.07-3.8-.07-.83-.36-1.73-.87-2.57-.22-.37-.44-.7-.73-.99-1.24-1.34-2.4-1.76-3.49-1.96-.36-.07-.87-.11-10.63-.12-9.76-.01-28.91,0-41.87.02-12.96.02-19.73.03-26.51.06-.58.06-1.16.17-1.6.29-1.02.3-1.6.64-2.33,1.41-.44.5-.73.99-.95,1.61-.15.37-.29.8-.36,1.34-.07.54-.15,1.18-.15,2.07-.07.89-.07,2.01-.07,3.75v15.7l89.56-.03h0ZM341.43,9.84c19.81,0,39.69-.01,58.33-.02,18.57,0,35.82-.01,53.16-.02v12.48c0,4.39,0,9.12-.07,13.85h-42.96c0,22.46-.07,44.91-.07,62.43-.07,17.52-.07,30.1-.15,42.69h-25.56c.07-8.87.07-17.75.07-35.27.07-17.52.07-43.67.15-69.83h-42.96v-13.15h0v-6.04c0-2.19.07-4.66.07-7.13h0ZM596.94,62.95v3.75c0,.87-.07,1.56-.07,2.26,0,1.13-.15,2.27-.29,3.34-.36,2.01-.95,3.89-1.97,5.75-.29.51-.66,1.03-1.02,1.57-.44.72-.87,1.31-1.24,1.74-.36.39-.95,1.03-1.6,1.65-.73.76-1.6,1.52-2.62,2.26-.87.66-1.82,1.24-2.77,1.72-1.02.49-2.04.88-3.35,1.17-1.24.28-2.84.46-4.37.48,1.6,4.53,3.28,9.07,6.48,17.83,3.13,8.76,7.86,21.75,12.6,34.74h-28.83c-1.53-5.14-3.06-10.29-5.75-19.06-2.62-8.76-6.41-21.13-10.12-33.5l-70.34.02v22.55c-.07,8.76-.07,19.39-.07,30.02h-25.56c.07-29.84.07-59.7.15-81.6.07-21.91.07-35.86.07-49.82,5.97,0,11.94,0,22.06,0,10.12,0,24.39.01,37.94-.04,13.47-.05,26.21-.16,35.02-.2,8.74-.04,13.54,0,17.62.04,4,.05,7.28.12,10.56.21,2.26.14,5.17.85,7.43,2.11.51.29,1.02.62,1.53.97.95.67,1.75,1.35,2.48,2.12,1.31,1.29,2.77,3.33,3.64,4.94,1.6,2.91,2.26,5.66,2.4,8.58v6.06c0,1.85-.07,4.93-.07,7.64v13.83c0,2.35.07,5,.07,6.85h0ZM565.05,62.31c.73-.02,1.46-.09,1.97-.18,1.09-.23,1.6-.53,2.4-1.15.87-.75,1.17-1.44,1.46-2.19.07-.32.22-.68.29-1.2.07-.52.15-1.19.15-2.93v-10.52c-.07-1.46.15-2.53-.29-3.77-.14-.44-.36-.85-.58-1.23-.36-.64-.8-1.19-1.53-1.73-1.38-1.06-2.55-1.28-4-1.31l-83.08.03c0,4.66-.07,9.32-.07,13.68v12.52l83.3-.02h0ZM629.93,135.23v5.96h-25.56c.07-23.36.07-46.72.15-68.63s.07-42.35.15-62.79h25.56c-.07,27.05-.15,54.12-.15,73.28-.07,19.17-.07,30.44-.07,38.01s0,11.44-.07,14.18h0ZM669.76,132.6c-2.4,2.74-4.95,5.66-7.57,8.58h-28.76c8.45-9.6,16.89-19.22,26.51-30.18,9.61-10.96,20.39-23.27,31.24-35.58-5.68-6.44-11.29-12.88-20.82-23.82-9.61-10.94-23.08-26.39-36.63-41.84h28.76c10.56,12.03,21.04,24.08,28.25,32.28,7.21,8.21,10.99,12.58,14.85,16.94,4.08-4.7,8.23-9.4,15.44-17.61,7.21-8.21,17.55-19.93,27.82-31.66h28.69c-6.04,6.94-12.16,13.89-21.77,24.86-9.61,10.97-22.72,25.95-35.83,40.93,14.34,16.38,28.62,32.76,38.16,43.7,9.61,10.94,14.42,16.43,19.22,21.93h-28.76c-10.41-11.95-20.9-23.91-28.03-32.12-7.21-8.21-11.07-12.68-15-17.15-7.21,8.18-14.35,16.37-19.15,21.85-4.81,5.48-7.28,8.25-9.61,10.92-2.33,2.66-4.59,5.22-6.99,7.96h0Z"/>
  <polygon class="cls-2" points="29 249.1 41 174.85 57.71 174.85 57.71 269.19 47.19 269.19 47.19 191.16 34.25 269.19 23.2 269.19 10.26 191.16 10.26 269.19 .02 269.19 .02 174.85 17.01 174.85 29 249.1"/>
  <polygon class="cls-2" points="98.28 174.84 98.28 184.81 79.41 184.81 79.41 216.09 97.59 216.09 97.59 225.92 79.41 225.92 79.41 259.21 98.54 259.21 98.54 269.18 68.62 269.18 68.62 174.84 98.28 174.84"/>
  <polygon class="cls-2" points="118.9 174.84 118.9 259.21 136.69 259.21 136.69 269.18 108.12 269.18 108.12 174.84 118.9 174.84"/>
  <path class="cls-2" d="M182.79,235.77v15.9c0,11.72-5.8,17.52-17.53,17.52h-19.95v-94.34h19.68c11.74,0,17.52,5.78,17.52,17.51v13.88c0,8.36-2.83,12.66-8.21,14.7,5.51,2.14,8.49,6.45,8.49,14.82M164.73,184.55h-8.76v31.69h7.95c5.39,0,7.96-2.57,7.96-7.97v-16.58c0-4.85-2.3-7.14-7.14-7.14M155.96,259.48h9.02c4.84,0,7.15-2.28,7.15-7.15v-18.59c0-5.39-2.56-7.95-7.94-7.95h-8.23v33.68Z"/>
  <path class="cls-2" d="M214.59,270h-4.04c-11.72,0-17.53-5.8-17.53-17.52v-60.92c0-11.73,5.81-17.53,17.53-17.53h4.04c11.73,0,17.52,5.8,17.52,17.53v60.92c0,11.72-5.78,17.52-17.52,17.52M214.18,183.87h-3.24c-4.85,0-7.14,2.3-7.14,7.15v61.99c0,4.86,2.3,7.15,7.14,7.15h3.24c4.85,0,7.15-2.29,7.15-7.15v-61.99c0-4.85-2.3-7.15-7.15-7.15"/>
  <path class="cls-2" d="M281.04,252.48c0,11.73-5.79,17.52-17.52,17.52h-3.38c-11.71,0-17.51-5.8-17.51-17.52v-77.62h10.78v78.17c0,4.85,2.29,7.14,7.13,7.14h2.57c4.86,0,7.14-2.29,7.14-7.14v-78.17h10.79v77.62Z"/>
  <path class="cls-2" d="M329.55,237.39v31.79h-10.78v-31.39c0-5.66-2.57-8.22-8.22-8.22h-7.95v39.61h-10.79v-94.34h20.08c11.74,0,17.52,5.81,17.52,17.52v17.52c0,8.49-2.96,12.66-8.35,14.82,5.92,1.62,8.48,5.4,8.48,12.68M311.5,184.68h-8.9v35.31h8.09c5.39,0,7.96-2.56,7.96-7.95v-20.22c0-4.84-2.3-7.14-7.15-7.14"/>
  <polygon class="cls-2" points="370.67 174.84 380.92 174.84 380.92 269.18 367.43 269.18 350.45 195.47 350.45 269.18 340.19 269.18 340.19 174.84 355.03 174.84 370.67 243.18 370.67 174.84"/>
  <polygon class="cls-2" points="421.48 174.84 421.48 184.81 402.62 184.81 402.62 216.09 420.8 216.09 420.8 225.92 402.62 225.92 402.62 259.21 421.75 259.21 421.75 269.18 391.82 269.18 391.82 174.84 421.48 174.84"/>
</svg>